<svg id="instagram" xmlns="http://www.w3.org/2000/svg" width="22" height="22.006" viewBox="0 0 22 22.006">
  <path id="Path_332" data-name="Path 332" d="M22.846,6.47A8.045,8.045,0,0,0,22.335,3.8,5.636,5.636,0,0,0,19.114.581a8.065,8.065,0,0,0-2.67-.512C15.267.013,14.893,0,11.905,0S8.543.013,7.372.064A8.046,8.046,0,0,0,4.7.576a5.376,5.376,0,0,0-1.95,1.272A5.418,5.418,0,0,0,1.48,3.8,8.053,8.053,0,0,0,.969,6.467C.913,7.644.9,8.018.9,11.005s.013,3.362.061,4.533a8.044,8.044,0,0,0,.512,2.67A5.636,5.636,0,0,0,4.7,21.43a8.069,8.069,0,0,0,2.67.512c1.173.051,1.547.064,4.533.064s3.362-.013,4.533-.064a8.04,8.04,0,0,0,2.67-.512,5.628,5.628,0,0,0,3.22-3.22,8.068,8.068,0,0,0,.512-2.67c.051-1.174.064-1.547.064-4.533S22.9,7.644,22.846,6.47Zm-5.064-.021a1.32,1.32,0,1,1,1.32-1.32,1.32,1.32,0,0,1-1.32,1.32ZM6.252,11.005a5.653,5.653,0,1,1,5.653,5.653A5.653,5.653,0,0,1,6.252,11.005Z" transform="translate(-0.9)" fill="#fff"/>
  <circle id="Ellipse_158" data-name="Ellipse 158" cx="3.8" cy="3.8" r="3.8" transform="translate(7.224 7.504)" fill="#fff"/>
</svg>
