<svg xmlns="http://www.w3.org/2000/svg" width="22" height="21.034" viewBox="0 0 22 21.034">
  <g id="linkedin" transform="translate(0 0.012)">
    <path id="Path_333" data-name="Path 333" d="M23.636,34.627a2.448,2.448,0,1,0-.062,4.882h.03a2.449,2.449,0,1,0,.031-4.882Z" transform="translate(-20.979 -34.632)" fill="#e74c3c"/>
    <path id="Path_334" data-name="Path 334" d="M29.081,233.418h4.7v14.129h-4.7Z" transform="translate(-28.804 -226.525)" fill="#e74c3c"/>
    <path id="Path_335" data-name="Path 335" d="M250.912,223.74c-2.533,0-4.232,2.381-4.232,2.381v-2.049h-4.7V238.2h4.7v-7.89a3.217,3.217,0,0,1,.154-1.146,2.571,2.571,0,0,1,2.409-1.717c1.7,0,2.379,1.3,2.379,3.195V238.2h4.7v-8.1C256.315,225.757,254,223.74,250.912,223.74Z" transform="translate(-234.318 -217.179)" fill="#e74c3c"/>
  </g>
</svg>
