<svg xmlns="http://www.w3.org/2000/svg" width="22" height="17.88" viewBox="0 0 22 17.88">
  <path id="twitter" d="M22,50.113a9.4,9.4,0,0,1-2.6.712,4.485,4.485,0,0,0,1.984-2.493,9.015,9.015,0,0,1-2.86,1.092,4.507,4.507,0,0,0-7.8,3.084,4.645,4.645,0,0,0,.1,1.029,12.766,12.766,0,0,1-9.3-4.721,4.512,4.512,0,0,0,1.386,6.029,4.454,4.454,0,0,1-2.039-.554v.05a4.531,4.531,0,0,0,3.614,4.432,4.5,4.5,0,0,1-1.182.149,3.987,3.987,0,0,1-.851-.077,4.553,4.553,0,0,0,4.215,3.143,9.062,9.062,0,0,1-5.592,1.924A8.449,8.449,0,0,1,0,63.848a12.7,12.7,0,0,0,6.919,2.024A12.749,12.749,0,0,0,19.756,53.038c0-.2-.007-.392-.016-.585A9,9,0,0,0,22,50.113Z" transform="translate(0 -47.993)" fill="#fff"/>
</svg>
