<svg xmlns="http://www.w3.org/2000/svg" width="22" height="15.123" viewBox="0 0 22 15.123">
  <path id="youtube" d="M21.065,81.458c-.6-1.061-1.245-1.257-2.563-1.331-1.317-.09-4.629-.126-7.5-.126s-6.189.037-7.5.125-1.965.269-2.567,1.332C.316,82.517,0,84.344,0,87.559v.011c0,3.2.316,5.041.931,6.088S2.181,94.912,3.5,95s4.631.122,7.506.122,6.182-.046,7.5-.121,1.966-.282,2.563-1.343c.62-1.049.934-2.889.934-6.088V87.56C22,84.344,21.687,82.517,21.065,81.458ZM8.25,91.688v-8.25l6.875,4.125Z" transform="translate(0 -80)" fill="#fff"/>
</svg>
